<svg
   xmlns:dc="http://purl.org/dc/elements/1.1/"
   xmlns:cc="http://creativecommons.org/ns#"
   xmlns:rdf="http://www.w3.org/1999/02/22-rdf-syntax-ns#"
   xmlns:svg="http://www.w3.org/2000/svg"
   xmlns="http://www.w3.org/2000/svg"
   xmlns:sodipodi="http://sodipodi.sourceforge.net/DTD/sodipodi-0.dtd"
   xmlns:inkscape="http://www.inkscape.org/namespaces/inkscape"
   width="57.341797mm"
   height="16.134979mm"
   viewBox="0 0 57.341797 16.134979"
   version="1.1"
   inkscape:version="0.92.3 (2405546, 2018-03-11)"
   sodipodi:docname="logo-light.svg">
  <g transform="translate(-19.359375,-108.55402)">
    <g
       aria-label="CINEMATIC"
       style="font-style:normal;font-variant:normal;font-weight:normal;font-stretch:normal;font-size:3.71200871px;line-height:1.25;font-family:Montserrat;-inkscape-font-specification:Montserrat;opacity:1;fill:#000000;fill-opacity:1;stroke:none;stroke-width:0.79543048;stroke-linecap:round;stroke-linejoin:round;stroke-miterlimit:4;stroke-dasharray:none;stroke-opacity:1"
       id="text827">
      <path
         d="m 23.104607,115.54108 q -1.059513,0 -1.909033,-0.43908 -0.84952,-0.44862 -1.336323,-1.24087 -0.477259,-0.80179 -0.477259,-1.81358 0,-1.01179 0.477259,-1.80404 0.486803,-0.80179 1.336323,-1.24087 0.84952,-0.44862 1.909033,-0.44862 0.973607,0 1.73722,0.34363 0.763614,0.34362 1.259962,0.99269 l -1.422229,1.26951 q -0.620436,-0.7827 -1.460411,-0.7827 -0.706342,0 -1.135875,0.45816 -0.429532,0.44863 -0.429532,1.21224 0,0.76361 0.429532,1.22178 0.429533,0.44863 1.135875,0.44863 0.839975,0 1.460411,-0.78271 l 1.422229,1.26951 q -0.496348,0.64907 -1.259962,0.9927 -0.763613,0.34362 -1.73722,0.34362 z"
         style="font-style:normal;font-variant:normal;font-weight:900;font-stretch:normal;font-size:9.54516602px;font-family:Montserrat;-inkscape-font-specification:'Montserrat Heavy';fill:#000000;stroke:none;stroke-width:0.79543048"
         id="path841"
         inkscape:connector-curvature="0" />
      <path
         d="m 26.752203,108.70674 h 2.252659 v 6.68162 h -2.252659 z"
         style="font-style:normal;font-variant:normal;font-weight:900;font-stretch:normal;font-size:9.54516602px;font-family:Montserrat;-inkscape-font-specification:'Montserrat Heavy';fill:#000000;stroke:none;stroke-width:0.79543048"
         id="path843"
         inkscape:connector-curvature="0" />
      <path
         d="m 36.675447,108.70674 v 6.68162 H 34.823685 L 32.284671,112.353 v 3.03536 h -2.195389 v -6.68162 h 1.851763 l 2.539014,3.03537 v -3.03537 z"
         style="font-style:normal;font-variant:normal;font-weight:900;font-stretch:normal;font-size:9.54516602px;font-family:Montserrat;-inkscape-font-specification:'Montserrat Heavy';fill:#000000;stroke:none;stroke-width:0.79543048"
         id="path845"
         inkscape:connector-curvature="0" />
      <path
         d="m 43.325445,113.68932 v 1.69904 h -5.555287 v -6.68162 h 5.4312 v 1.69904 h -3.216721 v 0.78271 h 2.825369 v 1.62267 h -2.825369 v 0.87816 z"
         style="font-style:normal;font-variant:normal;font-weight:900;font-stretch:normal;font-size:9.54516602px;font-family:Montserrat;-inkscape-font-specification:'Montserrat Heavy';fill:#000000;stroke:none;stroke-width:0.79543048"
         id="path847"
         inkscape:connector-curvature="0" />
      <path
         d="m 50.167688,115.38836 -0.01909,-3.04491 -1.450865,2.44356 h -0.992697 l -1.450865,-2.33856 v 2.93991 H 44.20196 v -6.68162 h 1.851762 l 2.176298,3.56035 2.119027,-3.56035 h 1.851762 l 0.01909,6.68162 z"
         style="font-style:normal;font-variant:normal;font-weight:900;font-stretch:normal;font-size:9.54516602px;font-family:Montserrat;-inkscape-font-specification:'Montserrat Heavy';fill:#000000;stroke:none;stroke-width:0.79543048"
         id="path849"
         inkscape:connector-curvature="0" />
      <path
         d="m 57.852742,114.22385 h -2.539015 l -0.448622,1.16451 h -2.29084 l 2.920821,-6.68162 h 2.214478 l 2.920821,6.68162 h -2.329021 z m -0.620436,-1.62268 -0.649072,-1.67995 -0.649071,1.67995 z"
         style="font-style:normal;font-variant:normal;font-weight:900;font-stretch:normal;font-size:9.54516602px;font-family:Montserrat;-inkscape-font-specification:'Montserrat Heavy';fill:#000000;stroke:none;stroke-width:0.79543048"
         id="path851"
         inkscape:connector-curvature="0" />
      <path
         d="m 62.114508,110.45351 h -1.956759 v -1.74677 h 6.166177 v 1.74677 h -1.956759 v 4.93485 h -2.252659 z"
         style="font-style:normal;font-variant:normal;font-weight:900;font-stretch:normal;font-size:9.54516602px;font-family:Montserrat;-inkscape-font-specification:'Montserrat Heavy';fill:#000000;stroke:none;stroke-width:0.79543048"
         id="path853"
         inkscape:connector-curvature="0" />
      <path
         d="m 66.909015,108.70674 h 2.252659 v 6.68162 h -2.252659 z"
         style="font-style:normal;font-variant:normal;font-weight:900;font-stretch:normal;font-size:9.54516602px;font-family:Montserrat;-inkscape-font-specification:'Montserrat Heavy';fill:#000000;stroke:none;stroke-width:0.79543048"
         id="path855"
         inkscape:connector-curvature="0" />
      <path
         d="m 73.701443,115.54108 q -1.059513,0 -1.909033,-0.43908 -0.84952,-0.44862 -1.336323,-1.24087 -0.477258,-0.80179 -0.477258,-1.81358 0,-1.01179 0.477258,-1.80404 0.486803,-0.80179 1.336323,-1.24087 0.84952,-0.44862 1.909033,-0.44862 0.973607,0 1.737221,0.34363 0.763613,0.34362 1.259961,0.99269 l -1.422229,1.26951 q -0.620436,-0.7827 -1.460411,-0.7827 -0.706342,0 -1.135874,0.45816 -0.429533,0.44863 -0.429533,1.21224 0,0.76361 0.429533,1.22178 0.429532,0.44863 1.135874,0.44863 0.839975,0 1.460411,-0.78271 l 1.422229,1.26951 q -0.496348,0.64907 -1.259961,0.9927 -0.763614,0.34362 -1.737221,0.34362 z"
         style="font-style:normal;font-variant:normal;font-weight:900;font-stretch:normal;font-size:9.54516602px;font-family:Montserrat;-inkscape-font-specification:'Montserrat Heavy';fill:#000000;stroke:none;stroke-width:0.79543048"
         id="path857"
         inkscape:connector-curvature="0" />
    </g>
    <g
       aria-label="STUDIO"
       style="font-style:normal;font-variant:normal;font-weight:900;font-stretch:normal;font-size:7.90044165px;line-height:1.25;font-family:Montserrat;-inkscape-font-specification:'Montserrat Heavy';opacity:1;fill:#000000;fill-opacity:1;stroke:none;stroke-width:0.65837008;stroke-linecap:round;stroke-linejoin:round;stroke-miterlimit:4;stroke-dasharray:none;stroke-opacity:1"
       id="text831">
      <path
         d="m 21.396604,124.689 q -0.608334,0 -1.161365,-0.20541 -0.54513,-0.21331 -0.853248,-0.54513 l 0.18171,-0.30022 q 0.292317,0.30812 0.782144,0.50563 0.497728,0.18961 1.042858,0.18961 0.790045,0 1.192967,-0.30022 0.402923,-0.30021 0.402923,-0.78214 0,-0.37132 -0.213312,-0.59253 -0.213312,-0.22122 -0.52933,-0.33972 -0.316018,-0.11851 -0.853248,-0.24492 -0.608334,-0.1501 -0.979654,-0.29231 -0.363421,-0.14221 -0.624135,-0.43453 -0.252814,-0.30021 -0.252814,-0.79794 0,-0.40292 0.213312,-0.73474 0.213312,-0.33972 0.647836,-0.53723 0.442425,-0.19751 1.098161,-0.19751 0.458226,0 0.900651,0.1343 0.442424,0.13431 0.766342,0.36342 l -0.150108,0.32392 q -0.331819,-0.22911 -0.734741,-0.34762 -0.395022,-0.1185 -0.782144,-0.1185 -0.766343,0 -1.161365,0.30811 -0.395022,0.30812 -0.395022,0.79795 0,0.37132 0.213312,0.59253 0.213312,0.22121 0.52933,0.33972 0.316017,0.11851 0.861148,0.25281 0.608334,0.15011 0.971754,0.29232 0.36342,0.14221 0.616235,0.43453 0.260714,0.28441 0.260714,0.77424 0,0.40292 -0.221212,0.73474 -0.213312,0.33182 -0.663637,0.52933 -0.450325,0.19751 -1.106062,0.19751 z"
         style="font-style:normal;font-variant:normal;font-weight:300;font-stretch:normal;font-family:Montserrat;-inkscape-font-specification:'Montserrat Light';letter-spacing:5.4662919px;fill:#000000;stroke-width:0.65837008"
         id="path862"
         inkscape:connector-curvature="0" />
      <path
         d="m 31.205052,119.48261 h -1.990911 v -0.36342 h 4.384745 v 0.36342 h -1.990911 v 5.16689 h -0.402923 z"
         style="font-style:normal;font-variant:normal;font-weight:300;font-stretch:normal;font-family:Montserrat;-inkscape-font-specification:'Montserrat Light';letter-spacing:5.4662919px;fill:#000000;stroke-width:0.65837008"
         id="path864"
         inkscape:connector-curvature="0" />
      <path
         d="m 42.11339,124.689 q -1.050758,0 -1.635391,-0.60833 -0.576732,-0.60834 -0.576732,-1.7776 v -3.18388 h 0.402922 v 3.16808 q 0,1.01915 0.466126,1.52478 0.466126,0.50563 1.350976,0.50563 0.876949,0 1.343075,-0.50563 0.466126,-0.50563 0.466126,-1.52478 v -3.16808 h 0.402923 v 3.18388 q 0,1.16926 -0.584633,1.7776 -0.584633,0.60833 -1.635392,0.60833 z"
         style="font-style:normal;font-variant:normal;font-weight:300;font-stretch:normal;font-family:Montserrat;-inkscape-font-specification:'Montserrat Light';letter-spacing:5.4662919px;fill:#000000;stroke-width:0.65837008"
         id="path866"
         inkscape:connector-curvature="0" />
      <path
         d="m 51.679766,119.11919 h 2.188422 q 0.861148,0 1.524785,0.35552 0.671538,0.35552 1.042859,0.98755 0.37132,0.62414 0.37132,1.42208 0,0.79795 -0.37132,1.42998 -0.371321,0.62414 -1.042859,0.97966 -0.663637,0.35552 -1.524785,0.35552 h -2.188422 z m 2.15682,5.16689 q 0.766343,0 1.350976,-0.30022 0.584633,-0.30812 0.90065,-0.85325 0.316018,-0.54513 0.316018,-1.24827 0,-0.70314 -0.316018,-1.24827 -0.316017,-0.54513 -0.90065,-0.84534 -0.584633,-0.30812 -1.350976,-0.30812 h -1.753898 v 4.80347 z"
         style="font-style:normal;font-variant:normal;font-weight:300;font-stretch:normal;font-family:Montserrat;-inkscape-font-specification:'Montserrat Light';letter-spacing:5.4662919px;fill:#000000;stroke-width:0.65837008"
         id="path868"
         inkscape:connector-curvature="0" />
      <path
         d="M 63.673178,119.11919 H 64.0761 v 5.53031 h -0.402922 z"
         style="font-style:normal;font-variant:normal;font-weight:300;font-stretch:normal;font-family:Montserrat;-inkscape-font-specification:'Montserrat Light';letter-spacing:5.4662919px;fill:#000000;stroke-width:0.65837008"
         id="path870"
         inkscape:connector-curvature="0" />
      <path
         d="m 73.815916,124.689 q -0.813746,0 -1.469483,-0.36342 -0.655736,-0.37132 -1.034957,-1.01126 -0.371321,-0.63993 -0.371321,-1.42998 0,-0.79004 0.371321,-1.42998 0.379221,-0.63993 1.034957,-1.00335 0.655737,-0.37132 1.469483,-0.37132 0.813745,0 1.469482,0.36342 0.655736,0.36342 1.027057,1.00335 0.379221,0.63994 0.379221,1.43788 0,0.79795 -0.379221,1.43788 -0.371321,0.63994 -1.027057,1.00336 -0.655737,0.36342 -1.469482,0.36342 z m 0,-0.37132 q 0.695238,0 1.25617,-0.31602 0.560931,-0.31602 0.884849,-0.86905 0.323918,-0.56093 0.323918,-1.24827 0,-0.68734 -0.323918,-1.24037 -0.323918,-0.56093 -0.884849,-0.87694 -0.560932,-0.31602 -1.25617,-0.31602 -0.695239,0 -1.264071,0.31602 -0.560931,0.31601 -0.88485,0.87694 -0.323918,0.55303 -0.323918,1.24037 0,0.68734 0.323918,1.24827 0.323919,0.55303 0.88485,0.86905 0.568832,0.31602 1.264071,0.31602 z"
         style="font-style:normal;font-variant:normal;font-weight:300;font-stretch:normal;font-family:Montserrat;-inkscape-font-specification:'Montserrat Light';letter-spacing:5.4662919px;fill:#000000;stroke-width:0.65837008"
         id="path872"
         inkscape:connector-curvature="0" />
    </g>
    <path
       style="color:#000000;font-style:normal;font-variant:normal;font-weight:normal;font-stretch:normal;font-size:medium;line-height:normal;font-family:sans-serif;font-variant-ligatures:normal;font-variant-position:normal;font-variant-caps:normal;font-variant-numeric:normal;font-variant-alternates:normal;font-feature-settings:normal;text-indent:0;text-align:start;text-decoration:none;text-decoration-line:none;text-decoration-style:solid;text-decoration-color:#000000;letter-spacing:normal;word-spacing:normal;text-transform:none;writing-mode:lr-tb;direction:ltr;text-orientation:mixed;dominant-baseline:auto;baseline-shift:baseline;text-anchor:start;white-space:normal;shape-padding:0;clip-rule:nonzero;display:inline;overflow:visible;visibility:visible;opacity:1;isolation:auto;mix-blend-mode:normal;color-interpolation:sRGB;color-interpolation-filters:linearRGB;solid-color:#000000;solid-opacity:1;vector-effect:none;fill:#000000;fill-opacity:1;fill-rule:nonzero;stroke:none;stroke-width:0.64576524;stroke-linecap:butt;stroke-linejoin:round;stroke-miterlimit:4;stroke-dasharray:none;stroke-dashoffset:0;stroke-opacity:1;color-rendering:auto;image-rendering:auto;shape-rendering:auto;text-rendering:auto;enable-background:accumulate"
       d="m 19.359375,116.9193 v 0.64649 h 57.341797 v -0.64649 z"
       id="path837"
       inkscape:connector-curvature="0" />
  </g>
</svg>
